<mxfile host="app.diagrams.net" agent="Mozilla/5.0 (Windows NT 10.0; Win64; x64) AppleWebKit/537.36 (KHTML, like Gecko) Chrome/133.0.0.0 Safari/537.36" version="26.0.15">
  <diagram name="PÃ¡gina-1" id="U0TozAI-bLyJQuVYRaXo">
    <mxGraphModel dx="1179" dy="457" grid="1" gridSize="10" guides="1" tooltips="1" connect="1" arrows="1" fold="1" page="1" pageScale="1" pageWidth="827" pageHeight="1169" math="0" shadow="0">
      <root>
        <mxCell id="0" />
        <mxCell id="1" parent="0" />
        <mxCell id="Wjp8PHJTQ5KJuSH5vBDG-1" value="Load Experimental Data&lt;div&gt;&lt;i&gt;yexp&lt;/i&gt;&lt;/div&gt;" style="rounded=1;whiteSpace=wrap;html=1;" vertex="1" parent="1">
          <mxGeometry x="260" y="210" width="120" height="60" as="geometry" />
        </mxCell>
        <mxCell id="Wjp8PHJTQ5KJuSH5vBDG-2" value="Set up conditions&lt;div&gt;&lt;i&gt;hp: hyperparams&lt;/i&gt;&lt;/div&gt;" style="rounded=1;whiteSpace=wrap;html=1;" vertex="1" parent="1">
          <mxGeometry x="260" y="50" width="120" height="60" as="geometry" />
        </mxCell>
        <mxCell id="Wjp8PHJTQ5KJuSH5vBDG-3" value="Load initial conditions&lt;div&gt;&lt;i&gt;y0&lt;/i&gt;&lt;/div&gt;" style="rounded=1;whiteSpace=wrap;html=1;" vertex="1" parent="1">
          <mxGeometry x="260" y="130" width="120" height="60" as="geometry" />
        </mxCell>
        <mxCell id="Wjp8PHJTQ5KJuSH5vBDG-4" value="Select parameters to fit&lt;div&gt;&lt;i&gt;pfit: p in P subset&lt;/i&gt;&lt;/div&gt;" style="rounded=1;whiteSpace=wrap;html=1;" vertex="1" parent="1">
          <mxGeometry x="260" y="290" width="120" height="60" as="geometry" />
        </mxCell>
        <mxCell id="Wjp8PHJTQ5KJuSH5vBDG-5" value="Optimization algorithm (&lt;font face=&quot;Courier New&quot;&gt;patternsearch&lt;/font&gt;)&lt;div&gt;&lt;i&gt;min J&lt;/i&gt;&lt;/div&gt;" style="rounded=1;whiteSpace=wrap;html=1;" vertex="1" parent="1">
          <mxGeometry x="260" y="460" width="120" height="60" as="geometry" />
        </mxCell>
        <mxCell id="Wjp8PHJTQ5KJuSH5vBDG-8" value="Save optargs&lt;span style=&quot;background-color: transparent; color: light-dark(rgb(0, 0, 0), rgb(255, 255, 255));&quot;&gt;&amp;nbsp;&lt;/span&gt;" style="rounded=1;whiteSpace=wrap;html=1;" vertex="1" parent="1">
          <mxGeometry x="260" y="580" width="120" height="60" as="geometry" />
        </mxCell>
        <mxCell id="Wjp8PHJTQ5KJuSH5vBDG-9" value="Objective function&lt;div&gt;&lt;i&gt;J = f(y0, yexp, pfit)&lt;/i&gt;&lt;/div&gt;" style="rounded=1;whiteSpace=wrap;html=1;" vertex="1" parent="1">
          <mxGeometry x="430" y="460" width="120" height="60" as="geometry" />
        </mxCell>
        <mxCell id="Wjp8PHJTQ5KJuSH5vBDG-10" value="Run simulation&lt;div&gt;&lt;i&gt;y_i = ODE(y0, pfit_i)&amp;nbsp;&lt;/i&gt;&lt;/div&gt;" style="rounded=1;whiteSpace=wrap;html=1;" vertex="1" parent="1">
          <mxGeometry x="630" y="365" width="120" height="60" as="geometry" />
        </mxCell>
        <mxCell id="Wjp8PHJTQ5KJuSH5vBDG-11" value="Compute experimental vs simulated error&amp;nbsp;&lt;div&gt;&lt;i&gt;J_i = MSE(yexp, y&#39;_i)&lt;/i&gt;&lt;/div&gt;" style="rounded=1;whiteSpace=wrap;html=1;" vertex="1" parent="1">
          <mxGeometry x="630" y="535" width="120" height="60" as="geometry" />
        </mxCell>
        <mxCell id="Wjp8PHJTQ5KJuSH5vBDG-12" value="Variables post processing if needed&lt;div&gt;&lt;i&gt;y&#39;_i = g(y_i)&lt;/i&gt;&lt;/div&gt;" style="rounded=1;whiteSpace=wrap;html=1;" vertex="1" parent="1">
          <mxGeometry x="780" y="455" width="120" height="60" as="geometry" />
        </mxCell>
        <mxCell id="Wjp8PHJTQ5KJuSH5vBDG-13" value="Set parameters initial conditions and intervals&lt;div&gt;&lt;i&gt;pfit0, pfitlb, pfitub&lt;/i&gt;&lt;/div&gt;" style="rounded=1;whiteSpace=wrap;html=1;" vertex="1" parent="1">
          <mxGeometry x="260" y="370" width="120" height="60" as="geometry" />
        </mxCell>
        <mxCell id="Wjp8PHJTQ5KJuSH5vBDG-19" value="" style="endArrow=classic;html=1;rounded=0;" edge="1" parent="1">
          <mxGeometry width="50" height="50" relative="1" as="geometry">
            <mxPoint x="780" y="400" as="sourcePoint" />
            <mxPoint x="820" y="440" as="targetPoint" />
          </mxGeometry>
        </mxCell>
        <mxCell id="Wjp8PHJTQ5KJuSH5vBDG-20" value="" style="endArrow=classic;html=1;rounded=0;" edge="1" parent="1">
          <mxGeometry width="50" height="50" relative="1" as="geometry">
            <mxPoint x="820" y="535" as="sourcePoint" />
            <mxPoint x="770" y="565" as="targetPoint" />
          </mxGeometry>
        </mxCell>
        <mxCell id="Wjp8PHJTQ5KJuSH5vBDG-21" value="" style="endArrow=classic;html=1;rounded=0;" edge="1" parent="1">
          <mxGeometry width="50" height="50" relative="1" as="geometry">
            <mxPoint x="610" y="520" as="sourcePoint" />
            <mxPoint x="610" y="440" as="targetPoint" />
          </mxGeometry>
        </mxCell>
        <mxCell id="Wjp8PHJTQ5KJuSH5vBDG-22" value="" style="endArrow=classic;html=1;rounded=0;entryX=1;entryY=0.5;entryDx=0;entryDy=0;" edge="1" parent="1" target="Wjp8PHJTQ5KJuSH5vBDG-5">
          <mxGeometry width="50" height="50" relative="1" as="geometry">
            <mxPoint x="430" y="490" as="sourcePoint" />
            <mxPoint x="620" y="450" as="targetPoint" />
          </mxGeometry>
        </mxCell>
        <mxCell id="Wjp8PHJTQ5KJuSH5vBDG-23" value="&lt;i&gt;J&lt;/i&gt;" style="edgeLabel;html=1;align=center;verticalAlign=middle;resizable=0;points=[];" vertex="1" connectable="0" parent="Wjp8PHJTQ5KJuSH5vBDG-22">
          <mxGeometry x="0.28" relative="1" as="geometry">
            <mxPoint as="offset" />
          </mxGeometry>
        </mxCell>
        <mxCell id="Wjp8PHJTQ5KJuSH5vBDG-25" value="&lt;i&gt;pfit&lt;/i&gt;" style="endArrow=classic;html=1;rounded=0;exitX=1;exitY=0.5;exitDx=0;exitDy=0;entryX=1;entryY=0.5;entryDx=0;entryDy=0;" edge="1" parent="1" source="Wjp8PHJTQ5KJuSH5vBDG-4" target="Wjp8PHJTQ5KJuSH5vBDG-13">
          <mxGeometry width="50" height="50" relative="1" as="geometry">
            <mxPoint x="520" y="370" as="sourcePoint" />
            <mxPoint x="570" y="320" as="targetPoint" />
            <Array as="points">
              <mxPoint x="410" y="320" />
              <mxPoint x="410" y="400" />
            </Array>
          </mxGeometry>
        </mxCell>
        <mxCell id="Wjp8PHJTQ5KJuSH5vBDG-26" value="&lt;i&gt;pfit0,pfitlb,pfitub&lt;/i&gt;" style="endArrow=classic;html=1;rounded=0;entryX=0;entryY=0.5;entryDx=0;entryDy=0;exitX=0;exitY=0.5;exitDx=0;exitDy=0;" edge="1" parent="1" source="Wjp8PHJTQ5KJuSH5vBDG-13" target="Wjp8PHJTQ5KJuSH5vBDG-5">
          <mxGeometry width="50" height="50" relative="1" as="geometry">
            <mxPoint x="520" y="460" as="sourcePoint" />
            <mxPoint x="570" y="410" as="targetPoint" />
            <Array as="points">
              <mxPoint x="240" y="400" />
              <mxPoint x="240" y="490" />
            </Array>
          </mxGeometry>
        </mxCell>
        <mxCell id="Wjp8PHJTQ5KJuSH5vBDG-30" value="" style="endArrow=classic;html=1;rounded=0;exitX=1;exitY=0.75;exitDx=0;exitDy=0;entryX=0;entryY=0.75;entryDx=0;entryDy=0;" edge="1" parent="1" source="Wjp8PHJTQ5KJuSH5vBDG-5" target="Wjp8PHJTQ5KJuSH5vBDG-9">
          <mxGeometry width="50" height="50" relative="1" as="geometry">
            <mxPoint x="460" y="440" as="sourcePoint" />
            <mxPoint x="510" y="390" as="targetPoint" />
          </mxGeometry>
        </mxCell>
        <mxCell id="Wjp8PHJTQ5KJuSH5vBDG-31" value="&lt;i&gt;pfit_i&lt;/i&gt;" style="edgeLabel;html=1;align=center;verticalAlign=middle;resizable=0;points=[];" vertex="1" connectable="0" parent="Wjp8PHJTQ5KJuSH5vBDG-30">
          <mxGeometry x="0.0505" y="-2" relative="1" as="geometry">
            <mxPoint as="offset" />
          </mxGeometry>
        </mxCell>
        <mxCell id="Wjp8PHJTQ5KJuSH5vBDG-32" value="" style="endArrow=classic;html=1;rounded=0;exitX=1;exitY=0.5;exitDx=0;exitDy=0;entryX=0.5;entryY=0;entryDx=0;entryDy=0;" edge="1" parent="1" source="Wjp8PHJTQ5KJuSH5vBDG-1" target="Wjp8PHJTQ5KJuSH5vBDG-9">
          <mxGeometry width="50" height="50" relative="1" as="geometry">
            <mxPoint x="250" y="380" as="sourcePoint" />
            <mxPoint x="300" y="330" as="targetPoint" />
            <Array as="points">
              <mxPoint x="490" y="240" />
            </Array>
          </mxGeometry>
        </mxCell>
        <mxCell id="Wjp8PHJTQ5KJuSH5vBDG-33" value="&lt;i&gt;yexp&lt;/i&gt;" style="edgeLabel;html=1;align=center;verticalAlign=middle;resizable=0;points=[];" vertex="1" connectable="0" parent="Wjp8PHJTQ5KJuSH5vBDG-32">
          <mxGeometry x="0.2526" relative="1" as="geometry">
            <mxPoint as="offset" />
          </mxGeometry>
        </mxCell>
        <mxCell id="Wjp8PHJTQ5KJuSH5vBDG-34" value="" style="endArrow=classic;html=1;rounded=0;exitX=1;exitY=0.5;exitDx=0;exitDy=0;entryX=0.75;entryY=0;entryDx=0;entryDy=0;" edge="1" parent="1" source="Wjp8PHJTQ5KJuSH5vBDG-3" target="Wjp8PHJTQ5KJuSH5vBDG-9">
          <mxGeometry width="50" height="50" relative="1" as="geometry">
            <mxPoint x="250" y="380" as="sourcePoint" />
            <mxPoint x="300" y="330" as="targetPoint" />
            <Array as="points">
              <mxPoint x="520" y="160" />
            </Array>
          </mxGeometry>
        </mxCell>
        <mxCell id="Wjp8PHJTQ5KJuSH5vBDG-35" value="&lt;i&gt;y0&lt;/i&gt;" style="edgeLabel;html=1;align=center;verticalAlign=middle;resizable=0;points=[];" vertex="1" connectable="0" parent="Wjp8PHJTQ5KJuSH5vBDG-34">
          <mxGeometry x="0.0471" y="6" relative="1" as="geometry">
            <mxPoint as="offset" />
          </mxGeometry>
        </mxCell>
        <mxCell id="Wjp8PHJTQ5KJuSH5vBDG-36" value="" style="endArrow=classic;html=1;rounded=0;exitX=0;exitY=0.5;exitDx=0;exitDy=0;entryX=0;entryY=0.75;entryDx=0;entryDy=0;" edge="1" parent="1" source="Wjp8PHJTQ5KJuSH5vBDG-2" target="Wjp8PHJTQ5KJuSH5vBDG-5">
          <mxGeometry width="50" height="50" relative="1" as="geometry">
            <mxPoint x="190" y="290" as="sourcePoint" />
            <mxPoint x="240" y="240" as="targetPoint" />
            <Array as="points">
              <mxPoint x="180" y="80" />
              <mxPoint x="180" y="505" />
            </Array>
          </mxGeometry>
        </mxCell>
        <mxCell id="Wjp8PHJTQ5KJuSH5vBDG-37" value="&lt;i&gt;hp&lt;/i&gt;" style="edgeLabel;html=1;align=center;verticalAlign=middle;resizable=0;points=[];" vertex="1" connectable="0" parent="Wjp8PHJTQ5KJuSH5vBDG-36">
          <mxGeometry x="-0.0649" y="1" relative="1" as="geometry">
            <mxPoint as="offset" />
          </mxGeometry>
        </mxCell>
        <mxCell id="Wjp8PHJTQ5KJuSH5vBDG-38" value="" style="strokeWidth=2;html=1;shape=mxgraph.flowchart.annotation_2;align=left;labelPosition=right;pointerEvents=1;" vertex="1" parent="1">
          <mxGeometry x="550" y="380" width="50" height="220" as="geometry" />
        </mxCell>
        <mxCell id="Wjp8PHJTQ5KJuSH5vBDG-39" value="" style="endArrow=classic;html=1;rounded=0;exitX=0.5;exitY=1;exitDx=0;exitDy=0;entryX=0.5;entryY=0;entryDx=0;entryDy=0;" edge="1" parent="1" source="Wjp8PHJTQ5KJuSH5vBDG-5" target="Wjp8PHJTQ5KJuSH5vBDG-8">
          <mxGeometry width="50" height="50" relative="1" as="geometry">
            <mxPoint x="480" y="580" as="sourcePoint" />
            <mxPoint x="530" y="530" as="targetPoint" />
          </mxGeometry>
        </mxCell>
        <mxCell id="Wjp8PHJTQ5KJuSH5vBDG-40" value="&lt;i&gt;bestJ, optpars&lt;/i&gt;" style="edgeLabel;html=1;align=center;verticalAlign=middle;resizable=0;points=[];" vertex="1" connectable="0" parent="Wjp8PHJTQ5KJuSH5vBDG-39">
          <mxGeometry x="0.1526" y="-1" relative="1" as="geometry">
            <mxPoint as="offset" />
          </mxGeometry>
        </mxCell>
      </root>
    </mxGraphModel>
  </diagram>
</mxfile>
